<svg xmlns="http://www.w3.org/2000/svg" viewBox="2633.392 129.559 194.936 147.932">
  <defs>
    <style>
      .cls-1 {
        fill: none;
      }

      .cls-2 {
        fill: #2e3192;
      }

      .cls-3 {
        fill: #fcaf17;
      }

      .cls-4 {
        fill: #f26522;
      }

      .cls-5 {
        fill: #33377e;
      }

      .cls-6 {
        fill: #fff;
      }
    </style>
  </defs>
  <g id="balanço_de_aulas" data-name="balanço de aulas" transform="translate(2633.392 129.559)">
    <rect id="Rectangle_168" data-name="Rectangle 168" class="cls-1" width="135.309" height="84.596" transform="translate(16.831 16.831)"/>
    <path id="Path_2548" data-name="Path 2548" class="cls-2" d="M379.94,6.6H244.631A16.823,16.823,0,0,0,227.8,23.431v84.6a16.823,16.823,0,0,0,16.831,16.831h59.129V137.7h-27.9a8.415,8.415,0,1,0,0,16.831h72.637a8.415,8.415,0,0,0,0-16.831h-27.9V124.857h59.129a16.823,16.823,0,0,0,16.831-16.831v-84.6A16.5,16.5,0,0,0,379.94,6.6Z" transform="translate(-227.8 -6.6)"/>
    <path id="Path_2549" data-name="Path 2549" class="cls-3" d="M370.709,98.8H235.4V14.2H370.709Z" transform="translate(-218.569 2.631)"/>
    <path id="Path_2550" data-name="Path 2550" class="cls-4" d="M249.529,39.8H260.6a1.429,1.429,0,0,1,1.329,1.329V52.2A1.429,1.429,0,0,1,260.6,53.53H249.529A1.429,1.429,0,0,1,248.2,52.2V41.129A1.276,1.276,0,0,1,249.529,39.8Z" transform="translate(-203.023 33.723)"/>
    <path id="Path_2551" data-name="Path 2551" class="cls-4" d="M256.329,32.6H267.4a1.429,1.429,0,0,1,1.329,1.329V60.946a1.429,1.429,0,0,1-1.329,1.329H256.329A1.429,1.429,0,0,1,255,60.946V33.929A1.429,1.429,0,0,1,256.329,32.6Z" transform="translate(-194.764 24.978)"/>
    <path id="Path_2552" data-name="Path 2552" class="cls-4" d="M263.429,25.4H274.5a1.429,1.429,0,0,1,1.329,1.329V69.913a1.429,1.429,0,0,1-1.329,1.329H263.429a1.429,1.429,0,0,1-1.329-1.329V26.729A1.174,1.174,0,0,1,263.429,25.4Z" transform="translate(-186.141 16.234)"/>
    <path id="Path_2553" data-name="Path 2553" class="cls-4" d="M270.852,18.1h11.073a1.429,1.429,0,0,1,1.329,1.329V78.557a1.429,1.429,0,0,1-1.329,1.329H270.852a1.429,1.429,0,0,1-1.329-1.329V19.429C269.3,18.764,269.966,18.1,270.852,18.1Z" transform="translate(-177.177 7.367)"/>
    <path id="Path_2554" data-name="Path 2554" class="cls-5" d="M304.825,47.166l39.419,39.419a8.421,8.421,0,0,1,0,11.959h0a8.421,8.421,0,0,1-11.959,0L292.866,59.125a8.421,8.421,0,0,1,0-11.959h0A8.421,8.421,0,0,1,304.825,47.166Z" transform="translate(-151.799 39.644)"/>
    <g id="Group_2457" data-name="Group 2457" transform="translate(111.835 59.129)">
      <circle id="Ellipse_43" data-name="Ellipse 43" class="cls-6" cx="27.239" cy="27.239" r="27.239" transform="translate(5.536 5.536)"/>
      <path id="Path_2555" data-name="Path 2555" class="cls-5" d="M311.075,98.851a32.776,32.776,0,1,1,33-32.775A32.843,32.843,0,0,1,311.075,98.851Zm0-54.7a21.7,21.7,0,1,0,21.7,21.7A21.738,21.738,0,0,0,311.075,44.151Z" transform="translate(-278.3 -33.3)"/>
    </g>
  </g>
</svg>
