<svg xmlns="http://www.w3.org/2000/svg" viewBox="1957 108 170.88 179.435">
  <defs>
    <style>
      .cls-1 {
        fill: #2e3192;
      }

      .cls-2 {
        fill: #fcaf17;
      }

      .cls-3 {
        fill: #fff;
      }

      .cls-4 {
        fill: #333b88;
      }

      .cls-5 {
        fill: #f26522;
      }
    </style>
  </defs>
  <g id="Centro_de_aulas" data-name="Centro de aulas" transform="translate(1551)">
    <path id="Path_2556" data-name="Path 2556" class="cls-1" d="M22.542,116.454v-48.5c0-1.993-.443-2.879-2.436-3.765C7.262,58.876-1.153,44.7.175,31.194,1.726,15.913,12.134,3.733,26.307.854,39.373-1.8,50.224,1.962,59.083,11.706c.886,1.107,1.772,1.329,3.322,1.329H78.792c3.986,0,5.093,1.329,3.986,5.093a9.358,9.358,0,0,0,14.395,9.965,9.157,9.157,0,0,0,3.543-9.965c-.886-3.765,0-5.093,3.986-5.093h13.509c3.543,0,4.651,1.55,3.986,4.872-1.107,4.208.221,7.972,3.543,10.187,3.1,1.993,7.529,2.215,10.408.221a9.845,9.845,0,0,0,3.765-10.187c-.886-3.986,0-5.093,3.986-5.093h12.4c3.543,0,4.208.886,4.208,4.208v33.44c0,3.765,1.329,6.644,4.872,7.972,4.208,1.772,5.536,4.651,5.536,9.3-.221,27.682,0,55.364,0,83.046a11.565,11.565,0,0,1-.886,4.651c-3.1,6.865-6.2,13.509-9.3,20.374-.664,1.55-1.329,2.879-3.1,3.322a3.766,3.766,0,0,1-4.429-2.215c-3.322-8.194-2.657-7.087-11.737-7.087H28.522c-5.315,0-6.2-.664-6.2-5.979C22.542,148.122,22.542,132.4,22.542,116.454Zm64.886,46.284h52.706c4.208,0,5.979-2.657,3.986-6.422a13.872,13.872,0,0,1-1.329-5.979c0-27.018.221-54.035,0-81.274,0-5.093,1.329-8.637,6.2-10.63,3.1-1.329,4.429-3.986,4.429-7.308-.221-8.415,0-16.831,0-25.246,0-2.215.221-4.872-2.657-5.093s-3.1,2.215-3.543,4.208A16.81,16.81,0,0,1,115.111,26.1c-.443-1.107-.443-1.993-.886-3.1a2.919,2.919,0,0,0-5.758,0c-.221.664-.221,1.329-.443,1.772a17.271,17.271,0,0,1-15.28,12.623A16.413,16.413,0,0,1,75.913,26.322c-.664-1.993.221-4.872-1.993-5.758-1.772-.664-4.208-.221-6.422-.221h-.886c-1.772-.221-1.993.664-1.329,1.993a25.84,25.84,0,0,1,1.772,8.194c1.772,19.488-14.616,36.983-34.326,36.54-2.657,0-2.879.664-2.879,2.879v86.811c0,4.651,1.107,5.758,5.758,5.758C53.1,162.738,70.155,162.738,87.429,162.738ZM32.508,59.762c13.952.886,26.132-10.187,27.239-24.8,1.107-13.952-9.965-26.575-24.8-27.46A25.954,25.954,0,0,0,7.7,32.523C6.819,47.139,18.556,59.1,32.508,59.762Zm130.88,46.063v-29.9c0-4.208-2.879-6.865-7.087-6.644-3.765.221-5.979,3.1-5.979,7.308v54.921c0,8.194.221,8.415,8.415,8.415,3.543,0,4.651-1.107,4.651-4.651C163.388,125.312,163.388,115.568,163.388,105.824Z" transform="translate(405.962 107.974)"/>
    <path id="Path_2557" data-name="Path 2557" class="cls-2" d="M70.957,151.606h-51.6c-4.651,0-5.758-1.107-5.758-5.758V59.037c0-2.215.221-3.1,2.879-2.879,19.71.443,35.876-17.052,34.326-36.54a33.779,33.779,0,0,0-1.772-8.194c-.664-1.55-.443-2.215,1.329-1.993h.886c2.215,0,4.651-.664,6.422.221,1.993.886,1.107,3.765,1.993,5.758A16.862,16.862,0,0,0,76.493,26.483,16.715,16.715,0,0,0,91.774,13.86c.221-.664.221-1.329.443-1.772A3.021,3.021,0,0,1,95.1,9.653a2.851,2.851,0,0,1,2.879,2.436,12.7,12.7,0,0,0,.886,3.1A16.767,16.767,0,0,0,115.47,26.483a16.549,16.549,0,0,0,15.5-12.4c.443-1.993.664-4.651,3.543-4.208,2.879.221,2.657,2.879,2.657,5.093V40.213c0,3.543-1.107,5.979-4.429,7.308-4.872,1.993-6.2,5.536-6.2,10.63.221,27.018,0,54.035,0,81.274a13.872,13.872,0,0,0,1.329,5.979c1.993,3.765.221,6.422-3.986,6.422C105.947,151.606,88.452,151.606,70.957,151.606Zm4.208-49.163h33.218a3.84,3.84,0,0,0,3.986-3.1c.443-1.772-.443-3.1-1.993-3.986-.886-.664-2.215-.443-3.1-.443H42.832c-1.107,0-2.215-.221-3.1.443-1.55.886-2.436,2.215-1.993,3.986a3.924,3.924,0,0,0,4.208,3.1Zm0,30.118H42.611c-1.772,0-3.543.221-4.429,1.993-1.55,2.879.443,5.536,4.429,5.536H107.5c3.1,0,5.093-1.55,5.093-3.765s-1.772-3.543-5.093-3.543C96.867,132.56,86.016,132.56,75.165,132.56Zm0-74.852H42.611c-3.1,0-4.872,1.55-4.872,3.765s1.993,3.765,4.872,3.765h65.772c2.436,0,4.208-1.55,4.208-3.765s-1.772-3.765-4.208-3.765C97.31,57.487,86.237,57.708,75.165,57.708ZM74.943,83.84h32.111a10.782,10.782,0,0,0,2.657-.221,3.554,3.554,0,0,0,2.879-3.543,3.225,3.225,0,0,0-2.879-3.543,16.762,16.762,0,0,0-3.322-.221H43.939a16.762,16.762,0,0,0-3.322.221,3.529,3.529,0,0,0-2.657,1.993c-1.107,2.657.664,5.093,4.208,5.093C53.241,83.84,64.092,83.84,74.943,83.84Zm.221,37.426h32.554c2.879,0,4.872-1.55,4.872-3.543,0-2.215-1.772-3.765-4.872-3.986h-64a16.762,16.762,0,0,0-3.322.221,3.292,3.292,0,0,0-2.657,3.322,3.593,3.593,0,0,0,2.436,3.543,6.541,6.541,0,0,0,2.879.443Zm9.3-82.16H60.549c-2.436,0-3.765,1.107-3.986,3.543s1.329,3.543,3.543,3.986h47.613c2.879,0,5.093-1.772,4.872-3.986,0-2.215-1.772-3.543-4.872-3.543Z" transform="translate(422.434 119.107)"/>
    <path id="Path_2558" data-name="Path 2558" class="cls-3" d="M28.329,55.681C14.377,55.017,2.64,43.058,3.526,28.442A25.954,25.954,0,0,1,30.765,3.418c14.616.886,25.91,13.509,24.8,27.46C54.461,45.494,42.281,56.567,28.329,55.681ZM22.35,23.57v8.858c0,2.436,1.329,4.208,3.986,4.208,6.2.221,12.18.221,18.381,0A3.837,3.837,0,0,0,48.7,32.65c0-2.215-1.55-3.543-4.208-3.543H34.972c-3.543,0-4.872-1.329-4.872-4.872V14.712c0-2.657-1.55-4.429-3.765-4.429s-3.765,1.772-3.765,4.429C22.35,17.591,22.35,20.47,22.35,23.57Z" transform="translate(410.141 112.055)"/>
    <path id="Path_2559" data-name="Path 2559" class="cls-3" d="M80.966,67.969V97.2c0,3.543-1.107,4.651-4.651,4.651-7.972,0-8.415-.221-8.415-8.415V38.515c0-4.429,2.215-7.087,5.979-7.308,4.208-.221,7.087,2.436,7.087,6.644C80.966,48.038,80.966,58,80.966,67.969Z" transform="translate(488.384 145.83)"/>
    <path id="Path_2560" data-name="Path 2560" class="cls-4" d="M61.867,55.449h-33c-2.215,0-3.765-.886-4.208-3.1-.443-1.772.443-3.1,1.993-3.986a5.309,5.309,0,0,1,3.1-.443H94.2c1.107,0,2.215-.221,3.1.443,1.55.886,2.436,2.215,1.993,3.986a3.692,3.692,0,0,1-3.986,3.1H61.867Z" transform="translate(435.732 166.101)"/>
    <path id="Path_2561" data-name="Path 2561" class="cls-4" d="M62.022,65.021H94.354c3.1,0,5.093,1.329,5.093,3.543s-1.993,3.765-5.093,3.765H29.468c-3.986,0-6.2-2.657-4.429-5.536C26.146,65.021,27.7,64.8,29.468,64.8,40.319,65.021,51.17,65.021,62.022,65.021Z" transform="translate(435.577 186.646)"/>
    <path id="Path_2562" data-name="Path 2562" class="cls-4" d="M61.926,31.1H95.144c2.657,0,4.429,1.55,4.208,3.765,0,1.993-1.772,3.543-4.208,3.765H29.372c-3.1,0-4.872-1.329-4.872-3.765S26.272,31.1,29.372,31.1Z" transform="translate(435.673 145.716)"/>
    <path id="Path_2563" data-name="Path 2563" class="cls-4" d="M61.641,46.908H29.087c-3.543,0-5.315-2.436-4.208-5.093a2.861,2.861,0,0,1,2.657-1.993,16.762,16.762,0,0,1,3.322-.221h62.45a16.762,16.762,0,0,1,3.322.221,3.225,3.225,0,0,1,2.879,3.543,3.787,3.787,0,0,1-2.879,3.543,10.782,10.782,0,0,1-2.657.221C82.9,46.908,72.271,46.908,61.641,46.908Z" transform="translate(435.736 156.039)"/>
    <path id="Path_2564" data-name="Path 2564" class="cls-4" d="M61.926,63.96H29.815c-.886,0-1.993.221-2.879-.443A3.8,3.8,0,0,1,24.5,59.974a3.527,3.527,0,0,1,2.657-3.322,8.443,8.443,0,0,1,3.322-.221h64c3.1,0,4.872,1.55,4.872,3.986,0,2.215-1.993,3.543-4.872,3.543Z" transform="translate(435.673 176.413)"/>
    <path id="Path_2565" data-name="Path 2565" class="cls-4" d="M60.915,22.7H84.168c2.879,0,4.651,1.329,4.872,3.543,0,2.215-1.993,3.986-4.872,3.986H36.555c-2.215-.443-3.765-1.55-3.543-3.986S34.562,22.7,37,22.7Z" transform="translate(445.985 135.513)"/>
    <path id="Path_2566" data-name="Path 2566" class="cls-5" d="M12.121,19.666V11.029c0-2.657,1.772-4.429,3.765-4.429,2.215,0,3.765,1.772,3.765,4.429v9.523c0,3.543,1.329,4.872,4.872,4.872h9.523c2.657,0,4.208,1.329,4.208,3.543s-1.329,3.765-3.986,3.986c-6.2.221-12.18,0-18.381,0-2.657,0-3.765-1.772-3.986-4.208C12.121,25.424,12.121,22.545,12.121,19.666Z" transform="translate(420.369 115.959)"/>
  </g>
</svg>
