<svg xmlns="http://www.w3.org/2000/svg" viewBox="2279.708 121.503 212.979 147.622">
  <defs>
    <style>
      .cls-1 {
        fill: #2e3192;
      }

      .cls-2 {
        fill: #fcaf17;
      }

      .cls-3 {
        fill: #fff;
      }

      .cls-4 {
        fill: #f26522;
      }
    </style>
  </defs>
  <g id="Centro_de_duvidas" data-name="Centro de duvidas" transform="translate(1551)">
    <g id="Group_2459" data-name="Group 2459" transform="translate(82 4)">
      <path id="Path_2567" data-name="Path 2567" class="cls-1" d="M184.178,4.5q38.2,2.657,59.793,34.547c1.107,1.772,1.993,1.772,3.765,1.107,33.661-11.073,66.658,8.415,73.08,43.405,2.215,11.516.221,22.81-4.872,33.44a8.011,8.011,0,0,0-.443,5.536c1.329,3.986,2.436,7.751,3.543,11.737,1.772,6.422-2.215,10.851-8.637,9.744a3.2,3.2,0,0,1-1.55-.443c-7.972-2.215-14.838-1.329-22.81,2.215-19.931,8.858-39.2,6.2-56.914-6.865-1.55-1.107-2.436-1.329-3.986-.221-26.575,17.495-53.592,17.274-80.61,1.55a8.271,8.271,0,0,0-6.422-1.107c-5.758,1.329-11.737,2.215-17.495,3.543-6.644,1.329-10.63-3.1-8.858-9.744,1.772-6.2,3.543-12.18,5.536-18.381a5.079,5.079,0,0,0-.443-4.429c-12.623-26.8-10.63-52.706,6.644-76.845,12.4-17.052,29.454-26.132,50.049-28.346A42.8,42.8,0,0,1,184.178,4.5ZM183.07,137.817c11.959-.221,23.031-3.1,33-9.523,1.772-1.107,1.993-1.772.886-3.765a57.109,57.109,0,0,1,14.173-75.738c1.55-1.329,1.772-1.993.664-3.765-13.952-21.26-42.741-31.668-67.1-24.36-37.426,11.073-52.263,53.592-34.1,85.482a10.332,10.332,0,0,1,.886,9.523c-.443,1.329-.886,2.879-1.329,4.208-2.215,7.308-2.215,7.308,5.315,5.758,5.758-1.329,10.851-1.107,15.945,2.879A55.763,55.763,0,0,0,183.07,137.817Zm120.472-8.858c-3.1-10.408-3.1-10.408.443-18.381,13.73-29.9-9.966-63.558-43.184-59.572-23.7,2.879-42.077,25.91-38.755,49.385,4.208,29.232,34.768,45.4,61.122,31.89C289.591,128.959,295.348,124.529,303.542,128.959Z" transform="translate(537.977 113.186)"/>
      <path id="Path_2568" data-name="Path 2568" class="cls-2" d="M175.2,130.245c-11.294,0-22.146-2.879-31.447-9.523-5.315-3.765-10.187-4.208-15.945-2.879-7.529,1.772-7.529,1.55-5.315-5.758a30.771,30.771,0,0,1,1.329-4.208c1.329-3.322.886-6.2-.886-9.523-18.159-31.89-3.322-74.409,34.1-85.482,24.36-7.308,53.371,3.1,67.1,24.582,1.107,1.772.886,2.436-.664,3.765-23.917,18.159-29.9,50.049-14.173,75.738,1.107,1.772.886,2.657-.886,3.765A60.469,60.469,0,0,1,175.2,130.245ZM172.1,28.154a26.564,26.564,0,0,0-8.415.886c-9.3,2.879-16.831,7.751-19.045,18.159-1.107,5.093.886,8.858,5.093,10.187,4.651,1.55,8.858,0,11.516-4.208,1.107-1.772,1.772-3.765,2.879-5.536,2.215-3.765,5.979-3.986,9.965-3.543,3.1.443,5.315,1.772,6.2,4.872,1.107,3.986-.886,6.865-3.543,9.3s-5.758,4.651-8.415,6.865a18.488,18.488,0,0,0-5.979,8.637c-1.55,5.536.664,10.63,5.315,12.18,5.315,1.772,9.3-.443,11.516-6.2a11.916,11.916,0,0,1,4.651-6.2c3.986-2.879,7.751-5.536,11.073-9.08a20.833,20.833,0,0,0-.221-28.346C188.489,30.147,180.517,28.376,172.1,28.154Zm9.08,72.637a10.734,10.734,0,0,0-10.408-10.63,10.544,10.544,0,0,0-10.63,10.187,10.678,10.678,0,0,0,10.63,10.851A10.4,10.4,0,0,0,181.181,100.792Z" transform="translate(545.846 120.758)"/>
      <path id="Path_2569" data-name="Path 2569" class="cls-3" d="M241.488,103.651c-8.194-4.429-13.73,0-20.152,3.1-26.353,13.509-56.914-2.657-61.122-31.89-3.322-23.474,15.059-46.506,38.755-49.385,33.218-3.986,56.914,29.675,43.184,59.572C238.387,93.243,238.387,93.243,241.488,103.651ZM178.594,68.439a6.344,6.344,0,0,0,6.422,6.644,6.971,6.971,0,0,0,6.644-6.644,6.731,6.731,0,0,0-6.422-6.422A6.478,6.478,0,0,0,178.594,68.439Zm48.5,0a6.294,6.294,0,0,0-6.644-6.2,6.637,6.637,0,0,0-6.2,6.865,6.529,6.529,0,0,0,6.422,6.2C224.214,75.083,227.314,71.983,227.093,68.439Zm-24.36,6.644a6.91,6.91,0,0,0,6.644-6.2,6.475,6.475,0,0,0-6.422-6.644,6.424,6.424,0,0,0-.221,12.844Z" transform="translate(600.032 138.494)"/>
      <path id="Path_2570" data-name="Path 2570" class="cls-1" d="M156.126,18.5c8.415.221,16.388,1.993,22.588,8.415a20.609,20.609,0,0,1,.221,28.346,70.941,70.941,0,0,1-11.073,9.08,11.917,11.917,0,0,0-4.651,6.2c-2.215,5.758-6.2,7.751-11.516,6.2-4.651-1.55-6.865-6.644-5.315-12.18a18.016,18.016,0,0,1,5.979-8.637c2.879-2.436,5.758-4.429,8.415-6.865s4.872-5.315,3.543-9.3a6.388,6.388,0,0,0-6.2-4.872c-3.986-.443-7.529-.221-9.965,3.543-1.107,1.772-1.772,3.765-2.879,5.536a8.844,8.844,0,0,1-11.516,4.208c-4.208-1.55-6.2-5.093-5.093-10.187,2.215-10.408,9.744-15.28,19.045-18.159C150.368,18.5,153.247,18.5,156.126,18.5Z" transform="translate(561.821 130.412)"/>
      <path id="Path_2571" data-name="Path 2571" class="cls-1" d="M156.538,57.134A10.4,10.4,0,0,1,146.13,67.542,10.682,10.682,0,0,1,135.5,56.691,10.4,10.4,0,0,1,146.13,46.5,10.734,10.734,0,0,1,156.538,57.134Z" transform="translate(570.488 164.416)"/>
      <path id="Path_2572" data-name="Path 2572" class="cls-4" d="M168.3,48.222a6.344,6.344,0,0,1,6.644-6.422,6.734,6.734,0,0,1,6.422,6.422,7.145,7.145,0,0,1-6.644,6.644A6.344,6.344,0,0,1,168.3,48.222Z" transform="translate(610.326 158.711)"/>
      <path id="Path_2573" data-name="Path 2573" class="cls-4" d="M197.251,48.222a6.62,6.62,0,0,1-6.422,6.644,6.537,6.537,0,0,1-.221-13.066A6.62,6.62,0,0,1,197.251,48.222Z" transform="translate(629.873 158.711)"/>
      <path id="Path_2574" data-name="Path 2574" class="cls-4" d="M182.607,54.866a6.36,6.36,0,0,1-6.2-6.865,6.529,6.529,0,0,1,6.422-6.2,6.614,6.614,0,0,1,6.422,6.644C189.03,51.987,185.929,55.087,182.607,54.866Z" transform="translate(620.157 158.711)"/>
    </g>
  </g>
</svg>
