<svg xmlns="http://www.w3.org/2000/svg" viewBox="4568.113 2358.798 33.508 95.674">
  <defs>
    <style>
      .cls-1 {
        fill: #2e3192;
      }

      .cls-2 {
        fill: #f26522;
      }

      .cls-3 {
        fill: #fcaf17;
      }

      .cls-4 {
        fill: #fff;
      }
    </style>
  </defs>
  <g id="Group_1" data-name="Group 1" transform="translate(4568.015 2358.798)">
    <path id="Path_1" data-name="Path 1" class="cls-1" d="M27.8,66.379a2.027,2.027,0,0,1-.725-1.668Q27.112,37.843,27.1,11a15.82,15.82,0,0,0-.193-2.611A10.215,10.215,0,0,0,18.349.169C18.035,0,17.672.242,17.382,0H15.521c-.29.314-.7.169-1.039.266A10.315,10.315,0,0,0,6.553,10.612q0,27.049.024,54.1a2.1,2.1,0,0,1-.8,1.74A16.15,16.15,0,0,0,.485,82.405a16.481,16.481,0,0,0,18.541,13.1c6.962-.967,11.748-4.98,13.779-11.675C34.811,77.111,33.022,71.165,27.8,66.379ZM11.218,10.346a5.581,5.581,0,0,1,8.436-4.859A5.384,5.384,0,0,1,22.386,10.2c.048,1.813,0,3.6.024,5.415,0,.556-.193.677-.7.653q-1.958-.036-3.916,0a2.338,2.338,0,0,0-2.514,2.3,2.366,2.366,0,0,0,2.562,2.369q1.958.036,3.916,0c.556-.024.677.169.677.677.024,1.74.048,1.74-1.74,1.74-.991,0-1.982-.024-3,0a2.329,2.329,0,0,0-2.417,2.321,2.358,2.358,0,0,0,2.393,2.345c1.33.024,2.683.024,4.013,0,.532-.024.774.1.749.7-.048,1.015-.024,2.055,0,3.07.024.483-.073.725-.653.7-3.288-.024-6.6-.024-9.887,0-.653,0-.677-.29-.677-.774.024-3.6,0-7.228,0-10.829C11.218,17.38,11.17,13.875,11.218,10.346Zm9.21,80.085a11.953,11.953,0,0,1-15.495-9.5A11.479,11.479,0,0,1,9.478,69.4a3.991,3.991,0,0,0,1.74-3.433c-.048-9.21,0-18.444-.048-27.654,0-.991.29-1.184,1.184-1.16,3,.048,5.971.048,8.968,0,.822-.024,1.112.169,1.088,1.064-.048,4.738-.024,9.476-.024,14.189,0,4.617.024,9.21-.024,13.827a3.211,3.211,0,0,0,1.45,2.925A11.589,11.589,0,0,1,28.84,78.9,11.734,11.734,0,0,1,20.428,90.431Z" transform="translate(0)"/>
    <path id="Path_2" data-name="Path 2" class="cls-2" d="M38.45,185.8A3.315,3.315,0,0,1,37,182.874c.048-4.617.024-9.21.024-13.827,0-4.738-.024-9.476.024-14.189,0-.894-.266-1.064-1.088-1.064-3,.048-5.971.048-8.968,0-.919-.024-1.209.169-1.184,1.16.048,9.21,0,18.444.048,27.654a3.934,3.934,0,0,1-1.74,3.433,11.434,11.434,0,0,0-4.544,11.53,11.953,11.953,0,0,0,15.495,9.5A11.811,11.811,0,0,0,43.5,195.54,11.581,11.581,0,0,0,38.45,185.8Zm2.176,10.08a9.348,9.348,0,0,1-8.9,8.944,2.382,2.382,0,0,1-2.586-2.151,2.293,2.293,0,0,1,2.369-2.514,4.56,4.56,0,0,0,4.424-4.23,2.93,2.93,0,0,1,.894-2.079,2.1,2.1,0,0,1,2.417-.387A2.169,2.169,0,0,1,40.625,195.879Z" transform="translate(-14.614 -116.616)"/>
    <path id="Path_3" data-name="Path 3" class="cls-3" d="M45.875,46.5c0,.508.024.8.677.774,3.287-.024,6.6-.024,9.887,0,.58,0,.677-.218.653-.7-.024-1.015-.048-2.055,0-3.07.024-.6-.193-.725-.749-.7-1.33.024-2.683.024-4.013,0a2.358,2.358,0,0,1-2.393-2.345,2.329,2.329,0,0,1,2.417-2.321c.991-.024,1.982,0,3,0,1.789,0,1.765,0,1.74-1.74,0-.508-.121-.7-.677-.677-1.305.048-2.611.024-3.916,0a2.379,2.379,0,0,1-2.562-2.369,2.351,2.351,0,0,1,2.514-2.3q1.958-.036,3.916,0c.508,0,.725-.1.7-.653-.048-1.813.024-3.6-.024-5.415a5.442,5.442,0,0,0-2.732-4.714,5.575,5.575,0,0,0-8.436,4.883c-.073,3.505-.024,7.034-.024,10.539C45.9,39.277,45.9,42.9,45.875,46.5Z" transform="translate(-34.681 -14.766)"/>
    <path id="Path_4" data-name="Path 4" class="cls-4" d="M69.991,317.064a2.063,2.063,0,0,0-2.417.387,2.93,2.93,0,0,0-.894,2.079,4.56,4.56,0,0,1-4.424,4.23,2.305,2.305,0,0,0-2.369,2.514,2.382,2.382,0,0,0,2.586,2.151,9.348,9.348,0,0,0,8.9-8.944A2.255,2.255,0,0,0,69.991,317.064Z" transform="translate(-45.333 -240.243)"/>
  </g>
</svg>
